<svg fill="none" viewBox="0 0 710 191" height="191" width="710" xmlns="http://www.w3.org/2000/svg"><g opacity="0.5" style="mix-blend-mode:multiply"><path fill="#D7F5EE" d="M637.401 191C677.496 191 710 186.484 710 180.914C710 175.343 677.496 170.828 637.401 170.828C597.306 170.828 564.803 175.343 564.803 180.914C564.803 186.484 597.306 191 637.401 191Z"></path></g><g clip-path="url(#clip0_41_1639)"><path fill="#3C7EDD" d="M101.163 51.016C97.3797 51.016 94.6111 52.8876 93.1599 56.9093L78.6054 96.1583H78.3166L62.1559 56.624C60.6976 52.8876 58.084 51.016 54.5898 51.016C51.2436 51.016 48.7709 52.8876 47.3126 56.624L31.2999 96.3044H31.011L16.0127 56.7701C14.4136 52.6024 11.5041 51.0229 7.86195 51.0229C3.19832 51.016 0 54.3279 0 58.927C0 60.3673 0.288835 61.5153 1.01444 63.2409L22.1205 115.571C23.7197 119.599 26.4883 121.61 30.4193 121.61C34.0614 121.61 36.9709 119.599 38.57 115.571L54.2939 77.4766H54.5828L70.2996 115.571C71.8988 119.599 74.8153 121.61 78.5984 121.61C82.3814 121.61 85.15 119.599 86.7491 115.571L107.707 63.387C108.44 61.6614 108.87 60.3673 108.87 58.7879C108.877 54.1818 105.819 51.016 101.163 51.016Z"></path><path fill="#3C7EDD" d="M241.797 50.5852C231.752 50.5852 224.333 54.6068 219.966 62.0865H219.677V59.4982C219.677 54.3216 216.767 51.0166 211.674 51.0166C206.722 51.0166 203.664 54.3216 203.664 59.4982V113.122C203.664 118.438 206.722 121.604 211.674 121.604C216.767 121.604 219.677 118.438 219.677 113.122V90.5509C219.677 73.7339 227.828 66.4003 241.804 66.4003C246.609 66.4003 249.807 63.3806 249.807 58.4962C249.8 53.6049 246.602 50.5852 241.797 50.5852Z"></path><path fill="#3C7EDD" d="M299.156 81.4986L320.41 65.1129C322.735 63.3874 323.615 61.3765 323.615 58.7882C323.615 54.1891 320.558 51.0233 315.901 51.0233C313.422 51.0233 311.682 52.0322 309.498 53.7577L275.436 81.9369V27.7355C275.429 22.4058 272.513 19.2469 267.419 19.2469C262.467 19.2469 259.41 22.4058 259.41 27.7285V113.122C259.41 118.438 262.467 121.603 267.419 121.603C272.513 121.603 275.422 118.438 275.422 113.122V99.6098L286.778 90.9821L309.484 118.152C311.231 120.309 313.562 121.603 316.324 121.603C321.129 121.603 324.327 118.438 324.327 113.692C324.327 110.958 323.164 109.093 321.565 107.222L299.156 81.4986Z"></path><path fill="#3C7EDD" d="M376.746 50.1538C366.123 50.1538 357.824 53.8902 352.583 60.2148H352.294V59.4982C352.294 54.3215 349.384 51.0166 344.291 51.0166C339.338 51.0166 336.281 54.3215 336.281 59.4982V139.861C336.281 145.184 339.338 148.343 344.291 148.343C349.384 148.343 352.294 145.184 352.294 139.861V112.398H352.583C357.824 118.723 366.116 122.459 376.746 122.459C397.127 122.459 410.808 108.085 410.808 86.3762C410.808 64.5356 397.127 50.1538 376.746 50.1538ZM373.541 107.945C361.17 107.945 352.287 99.0325 352.287 86.3832C352.287 73.5878 361.163 64.6748 373.541 64.6748C385.911 64.6748 394.506 73.4416 394.506 86.3832C394.506 99.1786 385.918 107.945 373.541 107.945Z"></path><path fill="#3C7EDD" d="M482.432 51.0166C477.628 51.0166 474.57 54.3215 474.57 59.4982V60.2148H474.282C468.892 53.744 460.601 50.1538 450.118 50.1538C429.597 50.1538 416.057 64.5287 416.057 86.3832C416.057 108.092 429.59 122.466 450.118 122.466C460.601 122.466 468.892 118.869 474.282 112.405H474.57V113.122C474.57 118.438 477.628 121.604 482.432 121.604C487.526 121.604 490.583 118.438 490.583 113.122V59.4982C490.583 54.3285 487.526 51.0166 482.432 51.0166ZM453.323 107.945C440.953 107.945 432.365 99.1786 432.365 86.3832C432.365 73.4416 440.953 64.6748 453.323 64.6748C465.842 64.6748 474.577 73.5878 474.577 86.3832C474.57 99.0325 465.842 107.945 453.323 107.945Z"></path><path fill="#3C7EDD" d="M512.281 19.2469C507.328 19.2469 504.271 22.4058 504.271 27.7285V113.122C504.271 118.438 507.328 121.603 512.281 121.603C517.374 121.603 520.283 118.438 520.283 113.122V27.7285C520.29 22.4058 517.374 19.2469 512.281 19.2469Z"></path><path fill="#3C7EDD" d="M152.258 49.6235C129.912 49.6235 114.717 64.3393 114.717 85.9781C114.717 107.478 129.912 122.194 152.258 122.194C174.463 122.194 189.8 107.478 189.8 85.9781C189.8 64.3393 174.463 49.6235 152.258 49.6235ZM167.489 94.9816C164.981 96.1644 163.22 98.5022 162.226 101.925C161.931 102.934 160.486 102.9 160.212 101.891C159.225 98.2517 157.048 95.4338 152.138 95.4338C152.138 95.4338 142.1 95.9765 136.288 93.6526C128.545 90.5564 126.221 83.6194 126.453 78.9647C127.2 63.7549 144.607 62.419 152.174 62.419C159.74 62.419 177.986 63.734 178.084 79.5491C178.119 85.4702 174.977 91.4539 167.489 94.9816Z"></path><path fill="#3C7EDD" d="M142.099 74.1711C139.155 74.1711 136.773 76.5298 136.773 79.4313C136.773 82.3396 139.162 84.6914 142.099 84.6914C145.037 84.6914 147.425 82.3327 147.425 79.4313C147.425 76.5298 145.044 74.1711 142.099 74.1711Z"></path><path fill="#3C7EDD" d="M161.409 74.1711C158.464 74.1711 156.083 76.5298 156.083 79.4313C156.083 82.3396 158.464 84.6914 161.409 84.6914C164.354 84.6914 166.735 82.3327 166.735 79.4313C166.742 76.5298 164.354 74.1711 161.409 74.1711Z"></path></g><g clip-path="url(#clip1_41_1639)"><path fill="white" d="M670.702 145.24H604.092C582.392 145.24 564.803 127.649 564.803 105.933V39.3067C564.803 17.5907 582.392 0 604.092 0H670.702C692.411 0 709.991 17.5907 709.991 39.3067V105.933C709.974 127.649 692.385 145.24 670.702 145.24Z"></path><path fill="white" d="M658.76 85.9897C655.28 87.6415 652.845 90.9452 651.463 95.745C651.04 97.1547 649.063 97.1288 648.674 95.6845C647.292 90.582 644.296 86.621 637.483 86.621C637.483 86.621 623.555 87.3734 615.516 84.1303C604.765 79.7802 601.562 70.0508 601.89 63.5041C602.909 42.16 627.069 40.266 637.544 40.266C648.018 40.266 673.353 42.0994 673.474 64.317C673.5 72.628 669.148 81.0342 658.76 85.9897Z"></path><path fill="#3C7EDD" d="M658.76 85.9896C655.28 87.6414 652.845 90.9451 651.463 95.7449C651.04 97.1546 649.063 97.1287 648.674 95.6844C647.293 90.5819 644.296 86.6209 637.483 86.6209C637.483 86.6209 623.555 87.3733 615.516 84.1302C604.765 79.7801 601.553 70.0507 601.89 63.504C602.909 42.1599 627.07 40.2659 637.544 40.2659C648.018 40.2659 673.353 42.0993 673.474 64.3169C673.5 72.6366 669.148 81.0428 658.76 85.9896ZM637.665 22.286C606.665 22.286 585.622 42.9382 585.622 73.3544C585.622 103.554 606.691 124.215 637.665 124.215C668.457 124.215 689.708 103.563 689.708 73.3544C689.708 42.9728 668.423 22.286 637.665 22.286Z"></path><path fill="#3C7EDD" d="M623.555 71.5474C627.633 71.5474 630.938 68.2407 630.938 64.1617C630.938 60.0827 627.633 56.776 623.555 56.776C619.478 56.776 616.172 60.0827 616.172 64.1617C616.172 68.2407 619.478 71.5474 623.555 71.5474Z"></path><path fill="#3C7EDD" d="M650.341 71.5474C654.418 71.5428 657.72 68.2325 657.715 64.1535C657.711 60.0745 654.402 56.7715 650.324 56.7761C646.247 56.7806 642.945 60.091 642.95 64.17C642.954 68.249 646.263 71.5519 650.341 71.5474Z"></path></g><defs><clipPath id="clip0_41_1639"><rect transform="translate(0 19.2469)" fill="white" height="129.102" width="520.291"></rect></clipPath><clipPath id="clip1_41_1639"><rect transform="translate(564.803)" fill="white" height="145.24" width="145.197"></rect></clipPath></defs></svg>